<svg data-name="レイヤー 1" xmlns="http://www.w3.org/2000/svg" viewBox="0 0 114.027 40"><g data-name="グループ 66"><path data-name="パス 61" d="M19.688 12.664C10.454 16.608 7.223 20.933 7.223 24.9c0 6.234 6.29 6.386 6.29 8.867a1.563 1.563 0 01-1.8 1.678c-3.177-.052-3.319-6.254-6.923-6.254-2.111 0-2.671 1.248-4.79 3.992a3.184 3.184 0 014.246.349C5.264 34.611 7.079 40 11.708 40c4.576 0 6.458-2.776 6.458-5.427 0-5.449-7.184-4.886-7.184-9.673 0-5.878 11.133-5.521 15.275-6.959C41.219 12.754 30.579 0 30.579 0s3.233 6.627-10.891 12.664z" fill="#006c41"/><path data-name="パス 62" d="M15.678 24.556a8.41 8.41 0 00-3.5.67S12.8 22.84 16.6 21.8c2.991-.818 5.563-.453 8.7-1.161a11.173 11.173 0 006.225-3.122s1.1 5.917-5.517 7.453c-4.54 1.053-6.494-.414-10.33-.414z" fill="#008946"/><path data-name="パス 63" d="M15.767 27.822a6.557 6.557 0 00-2.52-.914s1.238-.827 4.087-.437c2.3.313 3.905.944 6.484.883a9.241 9.241 0 004.164-1.079 5.616 5.616 0 01-5.785 4.37c-3.109.001-4.224-1.626-6.43-2.823z" fill="#009e45"/></g><g data-name="グループ 69"><g data-name="グループ 67"><path data-name="パス 64" d="M44.342 13.177a5.434 5.434 0 00-2.136-.486c-1.162 0-1.825.561-1.825 1.339 0 .64.445 1.159 1.588 2l.715.534c1.778 1.308 3.092 2.382 3.092 4.479 0 2.259-1.725 4.13-4.728 4.13a7.322 7.322 0 01-3.539-.906l.866-1.858a5.635 5.635 0 002.564.746c1.222 0 1.739-.722 1.739-1.42 0-.8-.6-1.314-1.745-2.173l-.679-.511c-1.772-1.317-2.967-2.532-2.967-4.417 0-2.227 1.962-3.965 4.734-3.965a7.737 7.737 0 013.028.609z"/><path data-name="パス 65" d="M50.992 10.864V16.7h3.861v-5.836h3.494v14.1h-3.494v-6.351h-3.861v6.356H47.5v-14.1z"/><path data-name="長方形 43" d="M60.74 10.864h3.494v14.101H60.74z"/><path data-name="パス 66" d="M68.956 10.864l6.237 8.621v-8.621h2.37v14.1h-2.192l-6.239-8.627v8.627h-2.369v-14.1z"/><path data-name="パス 67" d="M86.825 13.177a5.456 5.456 0 00-2.137-.486c-1.163 0-1.825.561-1.825 1.339 0 .64.445 1.159 1.587 2l.716.534c1.779 1.308 3.092 2.383 3.092 4.479 0 2.259-1.727 4.13-4.727 4.13a7.323 7.323 0 01-3.54-.906l.865-1.858a5.619 5.619 0 002.564.746c1.222 0 1.737-.722 1.737-1.42 0-.8-.6-1.314-1.745-2.173l-.678-.511c-1.773-1.317-2.965-2.532-2.965-4.417 0-2.227 1.96-3.965 4.732-3.965a7.755 7.755 0 013.028.609z"/><path data-name="パス 68" d="M93.478 10.864V16.7h3.86v-5.836h3.494v14.1h-3.494v-6.351h-3.86v6.356h-3.486v-14.1z"/><path data-name="パス 69" d="M106.717 10.864v7.661c0 1.945.039 2.768.536 3.512a2.345 2.345 0 004.067-.469 7.473 7.473 0 00.333-3.065v-7.64h2.37v7.855c0 1.069.364 6.456-5.527 6.456a5.046 5.046 0 01-4.715-2.628 7.668 7.668 0 01-.554-3.676v-8.007z"/></g><g data-name="グループ 68"><path data-name="パス 70" d="M39.764 28.272v5.544c0 1.4.029 2 .385 2.54a1.7 1.7 0 002.943-.34 5.421 5.421 0 00.24-2.216v-5.528h1.716v5.684c0 .769.263 4.67-4 4.67a3.65 3.65 0 01-3.409-1.9 5.546 5.546 0 01-.4-2.661v-5.792z"/><path data-name="パス 71" d="M48.366 28.273l4.514 6.239v-6.239h1.72v10.2h-1.591l-4.509-6.24v6.24h-1.719v-10.2z"/><path data-name="長方形 44" d="M56.256 28.272h2.528v10.202h-2.528z"/><path data-name="パス 72" d="M62.787 28.273l2.046 6.55 2.089-6.55h1.815l-3.627 10.2h-1.426l-3.634-10.2z"/><path data-name="パス 73" d="M75.874 28.273v1.5h-3.345v2.7h3.093v1.425h-3.093v3.071h3.4v1.514h-5.921v-10.2z"/><path data-name="パス 74" d="M80.11 29.652V32.9h.414c.6 0 1.653 0 1.653-1.738 0-1.519-.872-1.514-1.619-1.514zm.47-1.38a6.1 6.1 0 012.745.366 2.327 2.327 0 011.36 2.119 2.755 2.755 0 01-2.115 2.722l3.042 4.995h-2.757l-2.3-4.359h-.441v4.359h-2.452v-10.2z"/><path data-name="パス 75" d="M91.293 29.948a3.945 3.945 0 00-1.545-.354c-.84 0-1.319.408-1.319.972 0 .463.323.839 1.147 1.45l.52.383c1.283.949 2.235 1.722 2.235 3.24 0 1.635-1.251 2.99-3.42 2.99a5.3 5.3 0 01-2.56-.658l.627-1.344a4.034 4.034 0 001.856.54c.883 0 1.257-.522 1.257-1.029 0-.579-.436-.949-1.263-1.572l-.492-.368c-1.282-.953-2.146-1.834-2.146-3.2 0-1.612 1.42-2.868 3.425-2.868a5.586 5.586 0 012.19.441z"/><path data-name="長方形 45" d="M93.546 28.272h2.525v10.202h-2.525z"/><path data-name="パス 76" d="M104.932 28.273v1.46h-2.6v8.742h-2.527v-8.742h-2.592v-1.46z"/><path data-name="パス 77" d="M108.487 28.273l1.888 3.85 1.835-3.85h1.813l-2.9 5.593v4.609h-2.458v-4.61l-3.048-5.593z"/></g></g></svg>